<svg xmlns="http://www.w3.org/2000/svg" width="377" height="52" viewBox="0 0 377 52">
  <g id="Group_5" data-name="Group 5" transform="translate(-339 122)">
    <g id="Group_3" data-name="Group 3" transform="translate(-5 -1)">
      <g id="Group_1" data-name="Group 1" transform="translate(344 -123)">
        <path id="Path_1" data-name="Path 1" d="M47.03,3h-.771V5.344A1.3,1.3,0,0,1,45.1,6.75H41.248a1.3,1.3,0,0,1-1.157-1.406V3H9.252V5.344A1.3,1.3,0,0,1,8.1,6.75H4.24A1.3,1.3,0,0,1,3.084,5.344V3H2.313A2.593,2.593,0,0,0,0,5.813V45.188A2.593,2.593,0,0,0,2.313,48h.771V45.656A1.3,1.3,0,0,1,4.24,44.25H8.1a1.3,1.3,0,0,1,1.156,1.406V48h30.84V45.656a1.3,1.3,0,0,1,1.157-1.406H45.1a1.3,1.3,0,0,1,1.156,1.406V48h.771a2.593,2.593,0,0,0,2.313-2.812V5.813A2.593,2.593,0,0,0,47.03,3ZM9.252,39.094A1.3,1.3,0,0,1,8.1,40.5H4.24a1.3,1.3,0,0,1-1.156-1.406V34.406A1.3,1.3,0,0,1,4.24,33H8.1a1.3,1.3,0,0,1,1.156,1.406Zm0-11.25A1.3,1.3,0,0,1,8.1,29.25H4.24a1.3,1.3,0,0,1-1.156-1.406V23.156A1.3,1.3,0,0,1,4.24,21.75H8.1a1.3,1.3,0,0,1,1.156,1.406Zm0-11.25A1.3,1.3,0,0,1,8.1,18H4.24a1.3,1.3,0,0,1-1.156-1.406V11.906A1.3,1.3,0,0,1,4.24,10.5H8.1a1.3,1.3,0,0,1,1.156,1.406ZM35.466,40.969a1.3,1.3,0,0,1-1.156,1.406H15.034a1.3,1.3,0,0,1-1.156-1.406V29.719a1.3,1.3,0,0,1,1.156-1.406H34.309a1.3,1.3,0,0,1,1.156,1.406Zm0-19.687a1.3,1.3,0,0,1-1.156,1.406H15.034a1.3,1.3,0,0,1-1.156-1.406V10.031a1.3,1.3,0,0,1,1.156-1.406H34.309a1.3,1.3,0,0,1,1.156,1.406ZM46.259,39.094A1.3,1.3,0,0,1,45.1,40.5H41.248a1.3,1.3,0,0,1-1.157-1.406V34.406A1.3,1.3,0,0,1,41.248,33H45.1a1.3,1.3,0,0,1,1.156,1.406Zm0-11.25A1.3,1.3,0,0,1,45.1,29.25H41.248a1.3,1.3,0,0,1-1.157-1.406V23.156a1.3,1.3,0,0,1,1.157-1.406H45.1a1.3,1.3,0,0,1,1.156,1.406Zm0-11.25A1.3,1.3,0,0,1,45.1,18H41.248a1.3,1.3,0,0,1-1.157-1.406V11.906A1.3,1.3,0,0,1,41.248,10.5H45.1a1.3,1.3,0,0,1,1.156,1.406Z" fill="#fff"/>
      </g>
    </g>
    <g id="Group_2" data-name="Group 2" transform="translate(38 1)">
      <path id="Path_2" data-name="Path 2" d="M243,33.965l.244,1.16a3.074,3.074,0,0,1-.763,1.739A35.6,35.6,0,0,1,236,42.906q-4.428,3.387-6.536,3.387a4.4,4.4,0,0,1-3.3-1.221,4.008,4.008,0,0,1-1.191-2.838q0-1.892,3.97-8.361,5.955-9.613,15.209-22.46-1.954,2.014-10.384,10.864-18.66,19.53-21.806,22.124a2.355,2.355,0,0,1-1.527.427,3.6,3.6,0,0,1-2.077-.793,2.311,2.311,0,0,1-1.1-1.831v-.153q.121-1.282,5.894-12.542T222.84,11.6q-5.773,6.348-11.667,14.16-11.208,14.831-16.4,25.268-.458.977-1.13.977a8.431,8.431,0,0,1-1.954-.336Q189,50.932,189,49.1q0-1.1,4.49-7.843,4.489-6.775,10.414-14.77,5.925-8.026,12.278-15.441Q224.946.793,227.451.793a1.5,1.5,0,0,1,.764.214,1.6,1.6,0,0,0,.458.183.264.264,0,0,0,.183-.092A1.951,1.951,0,0,1,230.414.61a5.9,5.9,0,0,1,2.291.458q1.129.458,1.13,1.038a50.948,50.948,0,0,1-3.055,5.829q-10.23,18.127-13.743,24.9,3.36-4.059,9.59-10.772,6.261-6.714,13.133-13.4Q248.708,0,250.449,0a6.71,6.71,0,0,1,1.771.305,13.04,13.04,0,0,0,3.635.549,1.536,1.536,0,0,1,.824.427.85.85,0,0,1,.367.641.815.815,0,0,1-.183.549q-9.927,13.183-16.737,23.254t-8.4,13.61q3.207-.671,9.56-7.66a5.152,5.152,0,0,1,.4-.488,2.334,2.334,0,0,0,.213-.244q.521-.61.794.763.123.793.153,1.129a6.036,6.036,0,0,1,.092.671A3.076,3.076,0,0,1,243,33.965Z" transform="translate(344 -123)" fill="#fff"/>
      <path id="Path_3" data-name="Path 3" d="M267.824,21.972a2.871,2.871,0,0,1,1.863.824,3.127,3.127,0,0,1,.978,2.533,11.672,11.672,0,0,1-1.191,4.394,29.29,29.29,0,0,1-3.268,5.493,46.59,46.59,0,0,1-4.581,5.249,24.115,24.115,0,0,1-5.376,4.028,11.14,11.14,0,0,1-5.222,1.556,5.063,5.063,0,0,1-3.787-1.465,5.776,5.776,0,0,1-1.4-4.12,15.9,15.9,0,0,1,1.283-5.859,21.263,21.263,0,0,1,3.359-5.645,32.434,32.434,0,0,1,4.429-4.425q4.977-4,8.734-4a3.519,3.519,0,0,1,2.535.824.737.737,0,0,1,.306.488v.183A10.528,10.528,0,0,1,267.824,21.972Zm-3.084,4.059h-.214q-1.07,0-1.069-1.556a16.547,16.547,0,0,0-4.673,2.563,22.575,22.575,0,0,0-4.367,4.333q-3.909,5-3.97,8.453,0,1.709,1.252,1.709a7.942,7.942,0,0,0,3.726-1.648,21.824,21.824,0,0,0,4.886-4.7,36.046,36.046,0,0,0,3.635-5.279,8.552,8.552,0,0,0,1.221-3.052Q265.167,26.031,264.74,26.031Z" transform="translate(344 -123)" fill="#fff"/>
      <path id="Path_4" data-name="Path 4" d="M297.966,21.728q0,2.106-2.351,6.164a51.341,51.341,0,0,1-6.048,8.178,50.432,50.432,0,0,1-7.788,7.2q-4.122,3.021-6.444,3.021a3.384,3.384,0,0,1-2.29-.916,3.672,3.672,0,0,1-1.039-2.9q0-2.014,1.894-6.317a59.276,59.276,0,0,1,3.726-7.263,6.228,6.228,0,0,1-1.985,1.19q-.336,0-.886-.793a2.568,2.568,0,0,1-.519-1.221,1.175,1.175,0,0,1,.152-.671q6.016-6.683,8.491-6.683a2.562,2.562,0,0,1,1.741.61,1.877,1.877,0,0,1,.7,1.465q0,.854-2.077,4.913t-4.153,8.209q-2.078,4.12-2.077,5.188a.162.162,0,0,0,.183.183q.795,0,4.276-3.143a51.407,51.407,0,0,0,5.681-5.89,47.181,47.181,0,0,0,3.787-5.463,10.119,10.119,0,0,0,1.649-3.6,2.475,2.475,0,0,0-.367-1.4,2.407,2.407,0,0,1-.335-1.221,2.143,2.143,0,0,1,.885-1.465,3.341,3.341,0,0,1,2.321-.824Q297.966,18.279,297.966,21.728Z" transform="translate(344 -123)" fill="#fff"/>
      <path id="Path_5" data-name="Path 5" d="M317.663,11.718a5.269,5.269,0,0,1-1.619,3.509,4.66,4.66,0,0,1-3.39,1.739q-1.74,0-1.741-1.831a5.072,5.072,0,0,1,1.527-3.479,4.614,4.614,0,0,1,3.421-1.678,1.843,1.843,0,0,1,1.313.458A1.67,1.67,0,0,1,317.663,11.718Zm-4.948,26.641a3.387,3.387,0,0,1-.183,1.312,11.586,11.586,0,0,1-4.764,4.944,11.926,11.926,0,0,1-5.681,1.861,5.893,5.893,0,0,1-4.154-1.617,4.587,4.587,0,0,1-1.741-3.3,11.9,11.9,0,0,1,1.68-4.883q1.68-3.2,3.36-5.92a21.475,21.475,0,0,0,1.679-2.93q0-.244-.641-.915-.61-.671-.611-.977,0-.336,1.252-1.678A21.688,21.688,0,0,1,306,21.575a5.609,5.609,0,0,1,2.779-1.343,2.286,2.286,0,0,1,1.741.854,2.466,2.466,0,0,1,.764,1.556q0,.7-7.269,13.214-.091.183-.519.824-.4.61-.642,1.037-.213.4-.519.977a4.81,4.81,0,0,0-.611,2.045q0,1.038,1.4,1.038a5.437,5.437,0,0,0,2.9-.946,13.949,13.949,0,0,0,2.626-2.136q2.871-3.082,3.268-3.082Q312.716,35.613,312.715,38.359Z" transform="translate(344 -123)" fill="#fff"/>
      <path id="Path_6" data-name="Path 6" d="M334,22.4a4.692,4.692,0,0,1-1.649,3.54,5.239,5.239,0,0,1-3.7,1.526,1.026,1.026,0,0,1-.885-.305,1.56,1.56,0,0,1-.214-.854,4.154,4.154,0,0,1,.122-1.007,14.028,14.028,0,0,0-2.443,1.129,30.431,30.431,0,0,0-3.3,2.258q-1.955,1.5-1.954,2.228,0,.244.7.244a8.062,8.062,0,0,0,2.23-.488,7.72,7.72,0,0,1,2.076-.519,3.156,3.156,0,0,1,.794.061,2.655,2.655,0,0,1,.856.946,2.286,2.286,0,0,1,.458,1.129q0,.4-.794,1.068a5.878,5.878,0,0,1-1.8,1.037,9.841,9.841,0,0,0-1.344.519q-6.444,3.6-6.444,4.944,0,2.38,4.062,2.38A9.773,9.773,0,0,0,326,40.587a41.411,41.411,0,0,0,4-2.838q1.8-1.465,2.26-1.8a1.545,1.545,0,0,1,.733-.336q.795,0,.794,1.77a8.173,8.173,0,0,1-.214,2.35,3.994,3.994,0,0,1-1.221,1.373q-6.536,5.31-12.369,5.31A12.1,12.1,0,0,1,315,45.561q-3.42-1.556-3.42-4.761,0-4.211,5.833-6.378a2.7,2.7,0,0,1-1.5-1.312,7.362,7.362,0,0,1-.336-2.594,6.042,6.042,0,0,1,1.649-3.784,13.535,13.535,0,0,1,4.092-3.3,20.7,20.7,0,0,1,9.59-2.9,4.788,4.788,0,0,1,2.047.488A1.512,1.512,0,0,1,334,22.4Z" transform="translate(344 -123)" fill="#fff"/>
    </g>
    <path id="Path_12" data-name="Path 12" d="M23.208-9.786H7.393L3.8,0H.718L13.9-34.836h2.8L29.883,0H26.821ZM8.3-12.274H22.275L15.289-31.247ZM37.061-25.888l.1,4.426a10.28,10.28,0,0,1,3.637-3.649A9.451,9.451,0,0,1,45.6-26.366q4.163,0,6.2,2.345t2.058,7.034V0H51.01V-17.011a7.909,7.909,0,0,0-1.471-5.168q-1.448-1.7-4.63-1.7a7.242,7.242,0,0,0-4.7,1.663,9.741,9.741,0,0,0-3.027,4.486V0H34.333V-25.888ZM60.1-13.183q0-6.077,2.692-9.63A8.683,8.683,0,0,1,70.1-26.366a9,9,0,0,1,8.039,4.211l.144-3.732h2.68V-.526a10.964,10.964,0,0,1-2.8,7.919,10.015,10.015,0,0,1-7.584,2.919A11.52,11.52,0,0,1,65.425,9.1a10.015,10.015,0,0,1-3.864-3.218l1.6-1.723A9.071,9.071,0,0,0,70.39,7.9a7.349,7.349,0,0,0,5.6-2.117A8.436,8.436,0,0,0,78.07-.1V-3.35A9.253,9.253,0,0,1,70.055.479,8.633,8.633,0,0,1,62.829-3.11Q60.1-6.7,60.1-12.8Zm2.9.5a13.5,13.5,0,0,0,1.986,7.812,6.423,6.423,0,0,0,5.6,2.859A7.651,7.651,0,0,0,78.07-6.747V-18.782a8.166,8.166,0,0,0-2.9-3.792,7.807,7.807,0,0,0-4.546-1.3,6.5,6.5,0,0,0-5.623,2.835Q63-18.208,63-12.681Zm42.085,9.4Q102.5.479,96.828.479a8.009,8.009,0,0,1-6.292-2.4q-2.153-2.4-2.2-7.118V-25.888h2.847V-9.4q0,7.393,5.981,7.393,6.221,0,7.872-5.144V-25.888h2.871V0H105.13ZM118.552,0h-2.871V-36.75h2.871Zm24.117,0a13.54,13.54,0,0,1-.55-3.613,9.984,9.984,0,0,1-3.84,3.027A11.761,11.761,0,0,1,133.338.479,8.678,8.678,0,0,1,127.3-1.6a6.781,6.781,0,0,1-2.309-5.264,6.929,6.929,0,0,1,3.146-5.981q3.146-2.2,8.769-2.2H142.1v-2.943a5.671,5.671,0,0,0-1.711-4.366A7.071,7.071,0,0,0,135.4-23.95a7.807,7.807,0,0,0-4.953,1.531,4.55,4.55,0,0,0-1.962,3.685l-2.871-.024a6.658,6.658,0,0,1,2.871-5.347,11.055,11.055,0,0,1,7.058-2.261A10.084,10.084,0,0,1,142.37-24.2a7.77,7.77,0,0,1,2.572,6.041V-5.91a15.194,15.194,0,0,0,.79,5.623V0Zm-9-2.058a9.612,9.612,0,0,0,5.132-1.388,8.166,8.166,0,0,0,3.29-3.708v-5.694h-5.12a12.829,12.829,0,0,0-6.7,1.567,4.7,4.7,0,0,0-2.417,4.175,4.628,4.628,0,0,0,1.615,3.613A6.084,6.084,0,0,0,133.673-2.058Zm30.864-21.39a10.694,10.694,0,0,0-1.938-.167,6.992,6.992,0,0,0-4.534,1.5,8.19,8.19,0,0,0-2.644,4.343V0h-2.847V-25.888h2.8l.048,4.115a7.613,7.613,0,0,1,7.3-4.594,4.709,4.709,0,0,1,1.89.311Z" transform="translate(400 -83.25)" fill="#fff"/>
  </g>
</svg>
